<?xml version="1.0" encoding="utf-8"?>
<!-- Generator: Adobe Illustrator 16.0.0, SVG Export Plug-In . SVG Version: 6.00 Build 0)  -->
<!DOCTYPE svg PUBLIC "-//W3C//DTD SVG 1.1//EN" "http://www.w3.org/Graphics/SVG/1.1/DTD/svg11.dtd">
<svg version="1.1" id="Layer_1" xmlns="http://www.w3.org/2000/svg" xmlns:xlink="http://www.w3.org/1999/xlink" x="0px" y="0px"
	 width="859px" height="121px" viewBox="0 0 859 121" enable-background="new 0 0 859 121" xml:space="preserve">
<g>
	<g>
		<path fill="#6D6E71" d="M408.588,95.438c-0.675-1.198-1.397-2.556-2.169-4.073c-0.767-1.518-1.505-3.083-2.216-4.693
			l-30.532-68.706h-4.496l-32.217,71.458c-1.198,2.735-2.305,5.012-3.315,6.833c-1.01,1.817-1.856,3.083-2.527,3.794v0.224h11.466
			v-0.224c-0.076-0.111-0.148-0.327-0.224-0.646c-0.076-0.319-0.112-0.719-0.112-1.21c0-1.686,0.315-3.351,0.955-5.004
			c0.635-1.646,1.237-3.163,1.797-4.554l6.47-14.844c2.208-0.072,4.692-0.112,7.448-0.112s5.611,0,8.574,0c4.046,0,7.812,0,11.298,0
			s6.278,0.04,8.379,0.112l6.805,15.296c0.898,2.101,1.506,3.85,1.825,5.255c0.319,1.406,0.479,2.692,0.479,3.851
			c0,0.303-0.02,0.639-0.056,1.014c-0.04,0.376-0.096,0.659-0.172,0.843v0.224h15.407v-0.224c-0.191-0.224-0.543-0.751-1.07-1.573
			C409.861,97.65,409.263,96.641,408.588,95.438z M379.351,68.709c-2.025,0.02-4.134,0.036-6.326,0.056
			c-2.188,0.017-4.429,0.036-6.718,0.056c-2.284,0.017-4.517,0.028-6.688,0.028h-6.075l15.52-35.927l15.799,35.703
			C383.212,68.661,381.375,68.689,379.351,68.709z"/>
		<path fill="#6D6E71" d="M472.388,27.639c-3.71-3.075-8.02-5.288-12.932-6.634c-4.908-1.35-10.08-2.024-15.516-2.024
			c-2.024,0-4.185,0.036-6.493,0.111c-2.305,0.076-4.529,0.152-6.661,0.224c-2.139,0.076-4.039,0.152-5.709,0.226
			c-1.669,0.076-2.859,0.114-3.57,0.114c-0.415,0-0.954-0.01-1.629-0.03c-0.675-0.018-1.334-0.046-1.969-0.084
			c-0.751-0.035-1.558-0.073-2.416-0.111v0.226c0.224,0.787,0.438,1.779,0.643,2.979c0.208,1.198,0.388,2.672,0.535,4.413
			c0.151,1.741,0.264,3.821,0.34,6.239c0.075,2.419,0.111,5.222,0.111,8.405v36.602c0,3.187-0.036,5.97-0.111,8.351
			c-0.076,2.38-0.188,4.429-0.34,6.154c-0.147,1.725-0.327,3.167-0.535,4.329c-0.204,1.162-0.419,2.137-0.643,2.923v0.224
			c1.046,0,2.52,0.048,4.413,0.14c1.893,0.097,3.905,0.2,6.042,0.312c2.137,0.112,4.266,0.216,6.383,0.312
			c2.117,0.092,3.926,0.141,5.424,0.141c4.201,0,8.267-0.34,12.2-1.015c3.938-0.675,7.64-1.741,11.106-3.203
			c3.467-1.466,6.634-3.327,9.501-5.595c2.867-2.269,5.331-4.992,7.393-8.18c2.061-3.187,3.666-6.86,4.808-11.019
			c1.143-4.165,1.714-8.846,1.714-14.057c0-7.271-1.087-13.399-3.259-18.383C479.041,34.739,476.098,30.71,472.388,27.639z
			 M471.601,73.317c-0.975,3.806-2.312,7.057-4.018,9.757c-1.705,2.695-3.694,4.9-5.962,6.605c-2.269,1.705-4.685,3.043-7.253,4.018
			c-2.563,0.975-5.228,1.642-7.983,1.997c-2.756,0.359-5.443,0.535-8.067,0.535c-0.639,0-1.426-0.021-2.36-0.057
			c-0.934-0.035-1.893-0.083-2.867-0.14c-0.975-0.06-1.9-0.132-2.784-0.228c-0.883-0.092-1.582-0.176-2.109-0.251
			c-0.151-2.289-0.279-5.156-0.391-8.603c-0.112-3.451-0.196-7.049-0.252-10.795c-0.06-3.75-0.108-7.404-0.144-10.963
			c-0.036-3.562-0.057-6.597-0.057-9.109c0-1.198,0.009-2.575,0.028-4.131c0.021-1.556,0.036-3.186,0.056-4.893
			c0.021-1.705,0.04-3.437,0.057-5.199c0.02-1.764,0.048-3.485,0.088-5.174c0.071-3.935,0.147-8.002,0.224-12.199
			c0.71-0.038,1.617-0.104,2.725-0.197c1.106-0.092,2.288-0.168,3.542-0.224s2.521-0.112,3.794-0.17
			c1.274-0.056,2.42-0.084,3.431-0.084c5.136,0,9.681,0.797,13.635,2.391c3.957,1.593,7.272,3.926,9.952,6.999
			c2.68,3.072,4.712,6.851,6.102,11.327c1.386,4.481,2.077,9.585,2.077,15.322C473.062,65.026,472.575,69.516,471.601,73.317z"/>
		<path fill="#6D6E71" d="M553.335,19.879c0.075,0.149,0.151,0.384,0.224,0.703c0.075,0.319,0.111,0.702,0.111,1.154
			c0,1.685-0.315,3.354-0.954,5.002c-0.635,1.649-1.238,3.169-1.797,4.555l-24.062,55.715l-24.908-56.166
			c-0.898-2.097-1.51-3.851-1.825-5.256c-0.323-1.406-0.479-2.688-0.479-3.85c0-0.302,0.016-0.64,0.056-1.015
			c0.036-0.376,0.092-0.655,0.168-0.843v-0.224h-15.404v0.224c0.188,0.226,0.544,0.751,1.066,1.573
			c0.527,0.827,1.127,1.848,1.802,3.063c0.675,1.218,1.394,2.58,2.164,4.077c0.767,1.502,1.506,3.056,2.221,4.667l30.527,68.76
			h4.501l32.213-71.514c1.198-2.699,2.304-4.966,3.314-6.805c1.015-1.836,1.877-3.109,2.588-3.822v-0.224h-11.525V19.879z"/>
		<path fill="#6D6E71" d="M568.223,19.879c0.224,0.787,0.432,1.761,0.619,2.923c0.188,1.163,0.355,2.616,0.504,4.357
			c0.151,1.745,0.263,3.806,0.339,6.185c0.076,2.382,0.112,5.165,0.112,8.349v36.602c0,3.187-0.036,5.97-0.112,8.351
			c-0.076,2.38-0.188,4.429-0.339,6.154c-0.148,1.725-0.316,3.167-0.504,4.329s-0.396,2.137-0.619,2.923v0.224h13.439v-0.224
			c-0.229-0.786-0.443-1.761-0.647-2.923c-0.208-1.162-0.375-2.604-0.507-4.329c-0.132-1.726-0.244-3.774-0.34-6.154
			c-0.092-2.381-0.14-5.164-0.14-8.351V41.692c0-3.184,0.048-5.967,0.14-8.349c0.096-2.379,0.208-4.439,0.34-6.185
			c0.132-1.741,0.299-3.194,0.507-4.357c0.204-1.162,0.419-2.136,0.647-2.923v-0.224h-13.439V19.879z"/>
		<path fill="#6D6E71" d="M625.951,64.236c-2.284-2.584-4.761-5.076-7.42-7.477c-2.664-2.397-5.136-4.796-7.421-7.196
			c-2.288-2.398-4.188-4.824-5.706-7.28c-1.518-2.454-2.277-5.032-2.277-7.729c0-1.688,0.24-3.225,0.731-4.611
			c0.487-1.386,1.206-2.585,2.16-3.598c0.959-1.011,2.145-1.802,3.57-2.36c1.426-0.563,3.06-0.845,4.893-0.845
			c2.061,0,3.854,0.317,5.371,0.956c1.514,0.638,2.808,1.435,3.878,2.389c1.07,0.956,1.934,1.977,2.584,3.063
			c0.659,1.09,1.135,2.062,1.438,2.923h1.234l0.396-10.511c-0.604-0.264-1.37-0.6-2.305-1.015c-0.938-0.411-2.036-0.823-3.291-1.234
			c-1.258-0.411-2.667-0.769-4.245-1.07c-1.573-0.297-3.295-0.447-5.172-0.447c-2.552,0-5.023,0.447-7.424,1.348
			c-2.396,0.901-4.541,2.195-6.434,3.88c-1.894,1.686-3.411,3.721-4.553,6.099c-1.146,2.382-1.718,5.052-1.718,8.014
			c0,2.81,0.432,5.387,1.294,7.729c0.863,2.344,1.997,4.536,3.403,6.577c1.405,2.045,2.999,3.966,4.776,5.763
			c1.781,1.802,3.605,3.551,5.482,5.256c1.873,1.709,3.703,3.406,5.483,5.088c1.777,1.689,3.371,3.431,4.776,5.231
			c1.406,1.797,2.54,3.702,3.403,5.707c0.858,2.005,1.294,4.189,1.294,6.55c0,1.685-0.292,3.242-0.871,4.664
			c-0.583,1.426-1.418,2.652-2.504,3.687c-1.086,1.03-2.388,1.833-3.91,2.416c-1.518,0.579-3.23,0.871-5.144,0.871
			c-2.097,0-4.025-0.368-5.791-1.099c-1.761-0.73-3.326-1.705-4.692-2.924c-1.369-1.218-2.523-2.623-3.458-4.213
			c-0.935-1.594-1.613-3.271-2.021-5.036h-1.406l-1.294,12.429c0.822,0.559,1.881,1.182,3.175,1.853
			c1.294,0.675,2.756,1.302,4.385,1.885c1.63,0.579,3.411,1.07,5.34,1.462c1.933,0.392,3.966,0.591,6.103,0.591
			c3.821,0,7.12-0.61,9.896-1.829c2.771-1.218,5.04-2.799,6.801-4.752c1.761-1.945,3.067-4.146,3.91-6.602
			c0.838-2.456,1.262-4.9,1.262-7.341c0-3.259-0.759-6.306-2.276-9.133C630.141,69.531,628.239,66.824,625.951,64.236z"/>
		<path fill="#6D6E71" d="M712.749,29.971c-3.862-3.69-8.442-6.558-13.746-8.603c-5.308-2.04-11.087-3.062-17.349-3.062
			c-4.157,0-8.047,0.533-11.665,1.602c-3.614,1.065-6.913,2.558-9.893,4.469c-2.979,1.913-5.623,4.171-7.928,6.777
			c-2.304,2.604-4.257,5.463-5.847,8.574c-1.593,3.108-2.803,6.39-3.626,9.836c-0.826,3.45-1.238,6.953-1.238,10.516
			c0,6.294,1.087,12.021,3.259,17.172c2.173,5.156,5.196,9.569,9.054,13.243c3.858,3.67,8.443,6.514,13.746,8.515
			c5.304,2.009,11.087,3.011,17.345,3.011c4.161,0,8.039-0.535,11.638-1.605c3.598-1.065,6.889-2.548,9.868-4.44
			c2.979-1.894,5.631-4.142,7.955-6.745c2.32-2.604,4.281-5.443,5.875-8.515c1.594-3.075,2.804-6.338,3.626-9.784
			c0.827-3.447,1.238-6.953,1.238-10.516c0-6.258-1.091-11.975-3.263-17.148C719.626,38.094,716.606,33.665,712.749,29.971z
			 M711.004,77.759c-1.386,4.105-3.323,7.584-5.814,10.427c-2.496,2.852-5.468,5.024-8.914,6.526
			c-3.451,1.497-7.253,2.248-11.414,2.248c-5.212,0-9.78-1.042-13.718-3.119c-3.938-2.085-7.217-4.94-9.841-8.574
			s-4.589-7.939-5.902-12.903c-1.314-4.964-1.965-10.319-1.965-16.053c0-5.209,0.69-9.858,2.076-13.943
			c1.391-4.086,3.327-7.532,5.819-10.344s5.467-4.956,8.913-6.438c3.447-1.481,7.253-2.221,11.41-2.221
			c5.212,0,9.776,1.021,13.694,3.063c3.914,2.042,7.185,4.872,9.809,8.49s4.601,7.89,5.935,12.817
			c1.33,4.931,1.992,10.28,1.992,16.053C713.084,68.996,712.394,73.653,711.004,77.759z"/>
		<path fill="#6D6E71" d="M793.333,97.128c-0.775-0.711-1.578-1.573-2.42-2.588c-0.843-1.011-1.754-2.209-2.729-3.599
			l-19.732-27.716c2.173-0.975,4.142-2.185,5.902-3.626c1.762-1.441,3.271-3.099,4.525-4.976c1.258-1.873,2.232-3.964,2.923-6.269
			c0.695-2.305,1.043-4.809,1.043-7.506c0-3.446-0.631-6.529-1.886-9.247c-1.258-2.718-3.007-5.015-5.255-6.888
			c-2.253-1.873-4.9-3.299-7.956-4.272c-3.055-0.975-6.382-1.462-9.979-1.462c-3.862,0-7.037,0.176-9.529,0.533
			c-2.496,0.357-4.469,0.533-5.935,0.533c-0.935,0-1.845-0.008-2.724-0.028c-0.883-0.018-1.677-0.063-2.392-0.14
			c-0.823-0.076-1.609-0.147-2.36-0.224v0.224c0.224,0.787,0.439,1.761,0.646,2.923c0.208,1.163,0.384,2.616,0.535,4.357
			c0.148,1.745,0.26,3.806,0.336,6.185c0.076,2.382,0.111,5.165,0.111,8.349v36.602c0,3.187-0.035,5.97-0.111,8.351
			c-0.076,2.38-0.188,4.429-0.336,6.154c-0.151,1.725-0.327,3.167-0.535,4.329c-0.207,1.162-0.423,2.137-0.646,2.923v0.224h13.494
			v-0.224c-0.228-0.786-0.439-1.761-0.646-2.923c-0.208-1.162-0.376-2.604-0.508-4.329c-0.132-1.726-0.243-3.774-0.335-6.154
			c-0.096-2.381-0.14-5.164-0.14-8.351V65.642c2.024,0.34,4.01,0.508,5.958,0.508c1.949,0,3.842-0.093,5.679-0.28l19.9,28.056
			c0.827,1.162,1.546,2.332,2.165,3.515c0.619,1.178,0.986,2.124,1.098,2.835h16.247v-0.224c-0.747-0.299-1.482-0.683-2.193-1.154
			C794.838,98.43,794.096,97.839,793.333,97.128z M764.658,58.334c-2.196,1.649-4.816,2.719-7.875,3.206
			c-3.052,0.483-6.418,0.392-10.088-0.283V24.04c0.635-0.226,1.441-0.431,2.416-0.619c0.822-0.149,1.837-0.289,3.035-0.423
			c1.198-0.128,2.607-0.196,4.217-0.196c2.548,0,4.78,0.441,6.689,1.322c1.913,0.881,3.495,2.117,4.753,3.71
			c1.254,1.594,2.2,3.534,2.839,5.819c0.636,2.288,0.955,4.836,0.955,7.647c0,4.046-0.611,7.486-1.829,10.315
			C768.552,54.448,766.851,56.687,764.658,58.334z"/>
		<path fill="#6D6E71" d="M836.272,72.363c-1.518-2.832-3.419-5.539-5.703-8.127c-2.288-2.584-4.761-5.076-7.424-7.477
			c-2.664-2.397-5.136-4.796-7.42-7.196c-2.289-2.398-4.189-4.824-5.707-7.28c-1.518-2.454-2.276-5.032-2.276-7.729
			c0-1.688,0.243-3.225,0.73-4.611c0.487-1.386,1.206-2.585,2.16-3.598c0.959-1.011,2.149-1.802,3.57-2.36
			c1.426-0.563,3.06-0.845,4.893-0.845c2.064,0,3.854,0.317,5.371,0.956c1.518,0.638,2.812,1.435,3.882,2.389
			c1.066,0.956,1.93,1.977,2.584,3.063c0.655,1.09,1.135,2.062,1.434,2.923h1.234l0.396-10.511c-0.599-0.264-1.37-0.6-2.305-1.015
			c-0.935-0.411-2.032-0.823-3.286-1.234c-1.259-0.411-2.672-0.769-4.25-1.07c-1.573-0.297-3.294-0.447-5.171-0.447
			c-2.549,0-5.021,0.447-7.421,1.348c-2.396,0.901-4.545,2.195-6.438,3.88c-1.893,1.686-3.41,3.721-4.553,6.099
			c-1.143,2.382-1.717,5.052-1.717,8.014c0,2.81,0.431,5.387,1.294,7.729c0.862,2.344,1.996,4.536,3.402,6.577
			c1.405,2.045,2.999,3.966,4.776,5.763c1.781,1.802,3.606,3.551,5.483,5.256c1.873,1.709,3.702,3.406,5.483,5.088
			c1.78,1.689,3.37,3.431,4.776,5.231c1.405,1.797,2.539,3.702,3.402,5.707c0.862,2.005,1.294,4.189,1.294,6.55
			c0,1.685-0.292,3.242-0.871,4.664c-0.583,1.426-1.417,2.652-2.504,3.687c-1.086,1.03-2.388,1.833-3.909,2.416
			c-1.514,0.579-3.231,0.871-5.141,0.871c-2.101,0-4.029-0.368-5.794-1.099c-1.762-0.73-3.327-1.705-4.693-2.924
			c-1.369-1.218-2.52-2.623-3.458-4.213c-0.935-1.594-1.609-3.271-2.021-5.036h-1.406l-1.294,12.429
			c0.823,0.559,1.885,1.182,3.175,1.853c1.294,0.675,2.756,1.302,4.386,1.885c1.629,0.579,3.41,1.07,5.339,1.462
			c1.933,0.392,3.966,0.591,6.103,0.591c3.822,0,7.12-0.61,9.896-1.829c2.771-1.218,5.04-2.799,6.801-4.752
			c1.762-1.945,3.067-4.146,3.91-6.602s1.262-4.9,1.262-7.341C838.549,78.237,837.794,75.19,836.272,72.363z"/>
		<path fill="#6D6E71" d="M148.949,77.52c0,3.235,0.048,6.062,0.143,8.479c0.095,2.417,0.209,4.502,0.343,6.253
			s0.305,3.216,0.514,4.396c0.209,1.18,0.428,2.17,0.657,2.969v0.229H136.9v-0.229c0.229-0.799,0.448-1.789,0.657-2.969
			c0.209-1.181,0.39-2.646,0.543-4.396c0.152-1.751,0.266-3.836,0.342-6.253s0.114-5.244,0.114-8.479V40.345
			c0-3.236-0.038-6.062-0.114-8.48s-0.19-4.511-0.342-6.281c-0.153-1.771-0.333-3.246-0.543-4.426
			c-0.209-1.18-0.428-2.17-0.657-2.97V17.96c0.761,0.076,1.561,0.152,2.398,0.229c0.724,0.076,1.533,0.124,2.427,0.143
			s1.818,0.028,2.769,0.028c1.485,0,3.493-0.181,6.025-0.542c2.531-0.361,5.757-0.542,9.679-0.542c3.654,0,7.033,0.495,10.135,1.485
			c3.103,0.989,5.796,2.437,8.081,4.34c2.284,1.903,4.063,4.235,5.339,6.995s1.913,5.891,1.913,9.394
			c0,2.741-0.353,5.282-1.057,7.623c-0.704,2.342-1.694,4.464-2.97,6.367c-1.274,1.904-2.807,3.588-4.596,5.054
			c-1.79,1.466-3.788,2.693-5.996,3.684l20.043,28.151c0.99,1.408,1.913,2.627,2.77,3.654c0.856,1.028,1.675,1.903,2.455,2.627
			c0.781,0.724,1.533,1.322,2.256,1.799c0.723,0.476,1.465,0.866,2.227,1.17v0.229h-16.503c-0.114-0.723-0.485-1.685-1.113-2.883
			c-0.628-1.199-1.361-2.39-2.198-3.568L160.77,64.899c-1.866,0.19-3.788,0.286-5.767,0.286s-3.998-0.172-6.053-0.515V77.52z
			 M148.949,60.217c3.73,0.685,7.147,0.78,10.25,0.285c3.102-0.494,5.767-1.579,7.995-3.254c2.227-1.675,3.958-3.95,5.196-6.824
			c1.237-2.874,1.856-6.367,1.856-10.479c0-2.854-0.324-5.443-0.971-7.766c-0.647-2.322-1.608-4.292-2.884-5.91
			c-1.275-1.618-2.883-2.875-4.825-3.77c-1.941-0.895-4.206-1.341-6.795-1.341c-1.637,0-3.064,0.066-4.282,0.2
			c-1.218,0.133-2.246,0.276-3.083,0.428c-0.99,0.19-1.808,0.4-2.456,0.628V60.217z"/>
		<path fill="#6D6E71" d="M258.872,28.753L281.713,84.2l22.213-54.419c0.875-2.246,1.523-4.15,1.941-5.71
			c0.419-1.561,0.628-2.893,0.628-3.997c0-0.343-0.019-0.695-0.057-1.057s-0.095-0.638-0.171-0.828V17.96h11.306v0.229
			c-0.761,0.837-1.589,2.17-2.484,3.998c-0.895,1.827-1.932,4.092-3.112,6.795l-30.493,72.634h-4.34l-22.213-53.905l-20.271,53.905
			h-4.283l-27.98-69.837c-0.686-1.637-1.381-3.217-2.085-4.739s-1.37-2.894-1.999-4.111c-0.628-1.219-1.199-2.247-1.713-3.084
			c-0.513-0.837-0.885-1.389-1.113-1.656V17.96h15.818v0.229c-0.076,0.419-0.114,0.742-0.114,0.971c0,0.229,0,0.495,0,0.799
			c0,1.294,0.143,2.665,0.428,4.111s0.847,3.198,1.684,5.253l21.471,54.248l20.5-54.59L258.872,28.753z"/>
	</g>
	<g>
		<rect x="20.451" y="17.551" fill="#ED1C24" width="84.158" height="5.803"/>
		<rect x="20.451" y="26.257" fill="#ED1C24" width="34.825" height="5.803"/>
		<rect x="20.451" y="34.963" fill="#ED1C24" width="31.922" height="5.803"/>
		<rect x="20.451" y="43.667" fill="#ED1C24" width="26.114" height="5.805"/>
		<rect x="20.451" y="52.371" fill="#ED1C24" width="20.316" height="5.805"/>
		<rect x="20.451" y="61.081" fill="#ED1C24" width="14.509" height="5.799"/>
		<rect x="20.451" y="69.783" fill="#ED1C24" width="14.509" height="5.803"/>
		<rect x="20.451" y="78.489" fill="#ED1C24" width="11.611" height="5.803"/>
		<rect x="20.451" y="87.195" fill="#ED1C24" width="31.922" height="5.807"/>
		<rect x="20.451" y="95.905" fill="#ED1C24" width="31.922" height="5.799"/>
		<rect x="75.588" y="95.905" fill="#ED1C24" width="29.021" height="5.799"/>
		<rect x="61.077" y="26.257" fill="#ED1C24" width="5.805" height="5.803"/>
		<rect x="98.807" y="17.551" fill="#ED1C24" width="5.803" height="84.153"/>
		<rect x="61.077" y="34.963" fill="#ED1C24" width="8.704" height="5.803"/>
		<rect x="61.077" y="87.195" fill="#ED1C24" width="8.704" height="5.807"/>
		<rect x="61.077" y="95.905" fill="#ED1C24" width="8.704" height="5.799"/>
		<rect x="61.077" y="43.667" fill="#ED1C24" width="14.511" height="5.805"/>
		<rect x="61.077" y="52.371" fill="#ED1C24" width="20.315" height="5.805"/>
		<rect x="61.077" y="61.081" fill="#ED1C24" width="26.12" height="5.799"/>
		<rect x="61.077" y="69.783" fill="#ED1C24" width="26.12" height="5.803"/>
		<rect x="61.077" y="78.489" fill="#ED1C24" width="29.02" height="5.803"/>
	</g>
</g>
</svg>
